<svg xmlns="http://www.w3.org/2000/svg" width="36" height="36" fill="none"><rect id="backgroundrect" width="100%" height="100%" x="0" y="0" fill="none" stroke="none"/>
	
	<defs>
		<linearGradient id="paint0_linear" x1="0" y1="0.28333309292793274" x2="1" y2="0.28333309292793274">
			<stop stop-color="#0037A5"/>
			<stop offset="0.503789" stop-color="#6933FF"/>
			<stop offset="1" stop-color="#00FCED"/>
		</linearGradient>
	</defs>
<g class="currentLayer" style=""><title>Layer 1</title><g id="svg_1" class="">
		<path d="M26.383670270442963,24.32494354248047 C27.26707023382187,20.747743606567383 27.115470349788666,16.99044418334961 25.946870267391205,13.497342109680176 C24.778171002864838,10.004142761230469 22.641471326351166,6.921082973480225 19.78907150030136,4.612483024597168 C22.3936704993248,3.1034529209136963 25.34687179327011,2.312192916870117 28.351470410823822,2.318342924118042 C29.490571439266205,2.317723035812378 30.626971662044525,2.4302730560302734 31.74427169561386,2.6543729305267334 L32.21427100896835,0.7512447834014893 C30.943070828914642,0.489254891872406 29.648971021175385,0.3572308123111725 28.351470410823822,0.35717856884002686 C24.70977157354355,0.3501003086566925 21.142671048641205,1.395432949066162 18.072970807552338,3.369182825088501 C15.002971112728119,1.3957428932189941 11.435921132564545,0.35044264793395996 7.794391095638275,0.35717856884002686 C6.495901525020599,0.3572332262992859 5.200741708278656,0.489256888628006 3.928571403026581,0.7512447834014893 L4.398533284664154,2.6543729305267334 C5.516761243343353,2.430112838745117 6.654220998287201,2.317563056945801 7.794391095638275,2.318342924118042 C10.79955142736435,2.3120229244232178 13.753470838069916,3.1021528244018555 16.359771192073822,4.609432697296143 C14.02887099981308,6.495752811431885 12.168461263179779,8.905472755432129 10.927361905574799,11.645942687988281 C9.686271131038666,14.38634204864502 9.098951756954193,17.381343841552734 9.212401807308197,20.391443252563477 C9.325851857662201,23.401443481445312 10.136901319026947,26.34294319152832 11.580701291561127,28.98064422607422 C13.024461209774017,31.618343353271484 15.060871541500092,33.87904357910156 17.527171552181244,35.581844329833984 L18.078971326351166,35.96364212036133 L18.627770841121674,35.581844329833984 C22.49237197637558,32.9101448059082 25.253171384334564,28.906143188476562 26.38967078924179,24.32494354248047 H26.383670270442963 zM17.09967178106308,32.78054428100586 C14.559871137142181,30.570642471313477 12.716751515865326,27.660842895507812 11.797201573848724,24.409242630004883 C10.877631604671478,21.157743453979492 10.921701848506927,17.706144332885742 11.923991620540619,14.479442596435547 C12.906291425228119,16.123842239379883 14.125271260738373,17.6125431060791 15.541171491146088,18.896642684936523 C16.032471120357513,19.342742919921875 16.42517226934433,19.887943267822266 16.693572461605072,20.496843338012695 C16.96207183599472,21.105743408203125 17.10047096014023,21.7646427154541 17.09967178106308,22.43104362487793 V32.78054428100586 zM18.072970807552338,18.453643798828125 C16.768071591854095,17.478544235229492 15.606471478939056,16.322643280029297 14.622471272945404,15.020142555236816 C13.992471158504486,14.185842514038086 13.651340901851654,13.166342735290527 13.651340901851654,12.118142127990723 C13.651340901851654,11.069742202758789 13.992471158504486,10.050352096557617 14.622471272945404,9.21599292755127 C15.605571210384369,7.902772903442383 16.76947158575058,6.737382888793945 18.078971326351166,5.754962921142578 C19.40307182073593,6.750583171844482 20.578271329402924,7.932632923126221 21.568871915340424,9.26488208770752 C22.17827171087265,10.085352897644043 22.507571637630463,11.082642555236816 22.507571637630463,12.107342720031738 C22.507571637630463,13.132142066955566 22.17827171087265,14.12944221496582 21.568871915340424,14.94984245300293 C20.57447189092636,16.279142379760742 19.397370755672455,17.458843231201172 18.072970807552338,18.453643798828125 zM19.043172299861908,32.78054428100586 V22.43104362487793 C19.042771756649017,21.764543533325195 19.181571424007416,21.105243682861328 19.450572431087494,20.4963436126709 C19.71957153081894,19.88744354248047 20.112771451473236,19.342344284057617 20.60467094182968,18.896642684936523 C22.02027076482773,17.613143920898438 23.23837035894394,16.124343872070312 24.218770444393158,14.479442596435547 C24.741471707820892,16.160043716430664 25.006270825862885,17.91134262084961 25.00407165288925,19.672542572021484 C25.00147193670273,22.16024398803711 24.467770993709564,24.618343353271484 23.43927139043808,26.880043029785156 C22.410771787166595,29.141742706298828 20.911570966243744,31.154043197631836 19.043172299861908,32.78054428100586 z" fill="url(#paint0_linear)" id="svg_2"/>
	</g><path fill="#1aeb1a" fill-opacity="1" stroke="#222222" stroke-opacity="1" stroke-width="2" stroke-dasharray="none" stroke-linejoin="round" stroke-linecap="butt" stroke-dashoffset="" fill-rule="nonzero" opacity="1" marker-start="" marker-mid="" marker-end="" d="M21.777778148651123,28.49999976158142 C21.777778148651123,24.847453048834723 24.736342361578863,21.888888835906982 28.38888907432556,21.888888835906982 C32.04143578707226,21.888888835906982 35,24.847453048834723 35,28.49999976158142 C35,32.15254647432812 32.04143578707226,35.11111068725586 28.38888907432556,35.11111068725586 C24.736342361578863,35.11111068725586 21.777778148651123,32.15254647432812 21.777778148651123,28.49999976158142 z" id="svg_3" class=""/></g></svg>