<svg xmlns="http://www.w3.org/2000/svg" fill="#e7883b" role="presentation" aria-hidden="true" focusable="false" width="16" height="16"><rect id="backgroundrect" width="100%" height="100%" x="0" y="0" fill="none" stroke="none"/><g class="currentLayer" style=""><title>Layer 1</title><path fill-rule="evenodd" d="m2.207 2.381 1.687-1.284L4.21 1h7.604l.313.102 1.736 1.285.215.423v9.98l-.145.362-1.268 1.343-.384.165H3.967l-.36-.142-1.439-1.342L2 12.79V2.81l.207-.429Zm.844 6.674 1.174 1.298h.014v1.05h-.48l-.708-.788v1.941l1.118 1.05h7.88l.972-1.026v-2.028l-.964.851H7.16v-1.05h4.505l1.363-1.211V7.188l-.964.853H7.16v-1.05h4.505l1.363-1.208V3.965l-.964.856H3.77l-.72-.735v1.607l1.175 1.298h.014v1.05h-.48l-.708-.788v1.802Zm8.59-7.004H4.388l-1.069.816.893.914h7.454l1.05-.935-1.073-.795Z" id="svg_1"/><path d="M5.7 8.452a.788.788 0 1 1 0 1.576.788.788 0 0 1 0-1.576Zm-.93 3.858.93-.929.928.929-.929.928-.928-.928Zm.93-7.05.796.46v.92l-.797.46-.796-.46v-.92l.796-.46Z" id="svg_2"/><path fill="#1aeb1a" fill-opacity="1" stroke="#222222" stroke-opacity="1" stroke-width="1" stroke-dasharray="none" stroke-linejoin="round" stroke-linecap="butt" stroke-dashoffset="" fill-rule="nonzero" opacity="1" marker-start="" marker-mid="" marker-end="" d="M9.492537394165993,12.641791343688965 C9.492537394165993,10.984333038330078 10.835079088807106,9.641791343688965 12.492537394165993,9.641791343688965 C14.14999569952488,9.641791343688965 15.492537394165993,10.984333038330078 15.492537394165993,12.641791343688965 C15.492537394165993,14.299249649047852 14.14999569952488,15.641791343688965 12.492537394165993,15.641791343688965 C10.835079088807106,15.641791343688965 9.492537394165993,14.299249649047852 9.492537394165993,12.641791343688965 z" id="svg_3" class=""/></g></svg>