<svg xmlns:x="ns_extend;" xmlns:i="ns_ai;" xmlns:graph="ns_graphs;" xmlns="http://www.w3.org/2000/svg" xmlns:xlink="http://www.w3.org/1999/xlink" version="1.1" style="enable-background:new 0 0 40.1 42;" xml:space="preserve" width="40.099998474121094" height="42"><rect id="backgroundrect" width="100%" height="100%" x="0" y="0" fill="none" stroke="none"/>
 <style type="text/css">
  .st0{fill:#FF3621;}
 </style>
 <metadata>
  <sfw xmlns="ns_sfw;">
   <slices>
   </slices>
   <sliceSourceBounds bottomLeftOrigin="true" height="42" width="40.1" x="-69.1" y="-10.5">
   </sliceSourceBounds>
  </sfw>
 </metadata>
 
<g class="currentLayer" style=""><title>Layer 1</title><g id="svg_1">
  <path class="st0" d="M40.1,31.1v-7.4l-0.8-0.5L20.1,33.7l-18.2-10l0-4.3l18.2,9.9l20.1-10.9v-7.3l-0.8-0.5L20.1,21.2L2.6,11.6   L20.1,2l14.1,7.7l1.1-0.6V8.3L20.1,0L0,10.9V12L20.1,23l18.2-10v4.4l-18.2,10L0.8,16.8L0,17.3v7.4l20.1,10.9l18.2-9.9v4.3l-18.2,10   L0.8,29.5L0,30v1.1L20.1,42L40.1,31.1z" id="svg_2">
  </path>
 </g><path fill="#1aeb1a" fill-opacity="1" stroke="#222222" stroke-opacity="1" stroke-width="2" stroke-dasharray="none" stroke-linejoin="round" stroke-linecap="butt" stroke-dashoffset="" fill-rule="nonzero" opacity="1" marker-start="" marker-mid="" marker-end="" d="M23.508474349975586,32.89830493927002 C23.508474349975586,28.478415489196777 27.088584899902344,24.89830493927002 31.508474349975586,24.89830493927002 C35.92836380004883,24.89830493927002 39.508474349975586,28.478415489196777 39.508474349975586,32.89830493927002 C39.508474349975586,37.318196296691895 35.92836380004883,40.89830493927002 31.508474349975586,40.89830493927002 C27.088584899902344,40.89830493927002 23.508474349975586,37.318196296691895 23.508474349975586,32.89830493927002 z" id="svg_3" class=""/></g></svg>