<svg xmlns="http://www.w3.org/2000/svg" width="30" height="30" fill="none"><rect id="backgroundrect" width="100%" height="100%" x="0" y="0" fill="none" stroke="none" style="" class=""/>
	
	
	
<g class="currentLayer" style=""><title>Layer 1</title><path d="M18.606399536132812,4.594289779663086 L15.333200454711914,1.3210699558258057 C14.916060447692871,0.9028300046920776 14.42057991027832,0.5708900094032288 13.875089645385742,0.34421801567077637 C13.32960033416748,0.11754599958658218 12.74478006362915,0.0005869130836799741 12.154069900512695,0.000019311799405841157 C11.064579963684082,-0.003289220156148076 10.016809940338135,0.4186350107192993 9.233650207519531,1.1760300397872925 C8.82466983795166,1.5708200931549072 8.498339891433716,2.0430500507354736 8.273669958114624,2.5652098655700684 C8.049000024795532,3.08735990524292 7.930480003356934,3.6490001678466797 7.924999952316284,4.217410087585449 C7.919529914855957,4.785830020904541 8.027220010757446,5.349649906158447 8.24180006980896,5.876029968261719 C8.456370115280151,6.40241003036499 8.773550033569336,6.880839824676514 9.17484998703003,7.283430099487305 L15.113699913024902,13.222299575805664 C15.239700317382812,13.341699600219727 15.406599998474121,13.40820026397705 15.5802001953125,13.40820026397705 C15.753700256347656,13.40820026397705 15.920700073242188,13.341699600219727 16.046700477600098,13.222299575805664 L18.602499961853027,10.666399955749512 C18.76319980621338,10.474300384521484 21.43670082092285,7.420629978179932 18.606399536132812,4.594289779663086 z" fill="#15A9CA" id="svg_1" class=""/><path d="M23.968900680541992,9.823599815368652 C23.345600128173828,9.21992015838623 22.69879913330078,8.596630096435547 22.11479949951172,7.922379970550537 V7.898859977722168 C22.093900680541992,7.960180282592773 22.07819938659668,8.023119926452637 22.067699432373047,8.087019920349121 C21.822500228881836,9.519829750061035 21.119699478149414,10.834600448608398 20.064599990844727,11.834600448608398 C16.618900299072266,15.256799697875977 13.133959770202637,18.753400802612305 9.762740135192871,22.13640022277832 L9.30801010131836,22.587200164794922 C8.613100051879883,23.226499557495117 8.14407992362976,24.073699951171875 7.971280097961426,25.00200080871582 C7.898290157318115,25.663700103759766 7.967560052871704,26.33340072631836 8.174429893493652,26.96619987487793 C8.381309986114502,27.599000930786133 8.721019983291626,28.180299758911133 9.170810222625732,28.671100616455078 C9.554810047149658,29.106700897216797 10.03076982498169,29.451499938964844 10.564300060272217,29.680599212646484 C11.097839832305908,29.909799575805664 11.675620079040527,30.017499923706055 12.255879878997803,29.9960994720459 C13.60045051574707,30.01569938659668 14.25508975982666,29.83930015563965 15.235099792480469,28.886699676513672 C19.155099868774414,25.048999786376953 23.075199127197266,21.179899215698242 26.042600631713867,18.239900588989258 C27.442100524902344,16.84830093383789 27.763500213623047,14.543299674987793 26.771799087524414,12.991000175476074 C25.965200424194336,11.828700065612793 25.02440071105957,10.765600204467773 23.968900680541992,9.823599815368652 z" fill="#52CAA3" id="svg_2" class=""/><path d="M4.996093819849193,7.773449897766113 V22.230499267578125 C4.996026930399239,22.38949966430664 5.043122306466103,22.545000076293945 5.131419017910957,22.677200317382812 C5.219716012477875,22.80940055847168 5.345245987176895,22.912399291992188 5.492127001285553,22.97330093383789 C5.639009058475494,23.034099578857422 5.800636947154999,23.049999237060547 5.956566095352173,23.018999099731445 C6.112499952316284,22.988000869750977 6.255720019340515,22.911399841308594 6.368099927902222,22.798900604248047 L13.64367961883545,15.52340030670166 C13.781089782714844,15.384599685668945 13.858169555664062,15.19729995727539 13.858169555664062,15.001999855041504 C13.858169555664062,14.806699752807617 13.781089782714844,14.619400024414062 13.64367961883545,14.480600357055664 L6.368099927902222,7.205049991607666 C6.295029997825623,7.130499839782715 6.207810044288635,7.071290016174316 6.111549973487854,7.030900001525879 C6.015290021896362,6.990509986877441 5.911932945251465,6.969759941101074 5.807543039321899,6.969850063323975 C5.593686044216156,6.969840049743652 5.388466000556946,7.054250240325928 5.236513987183571,7.204740047454834 C5.084561608731747,7.355219841003418 4.998160079936497,7.559599876403809 4.996093819849193,7.773449897766113 z" fill="#5268AD" id="svg_3" class=""/><path fill="#1aeb1a" fill-opacity="1" stroke="#222222" stroke-opacity="1" stroke-width="2" stroke-dasharray="none" stroke-linejoin="round" stroke-linecap="butt" stroke-dashoffset="" fill-rule="nonzero" opacity="1" marker-start="" marker-mid="" marker-end="" d="M18.444443225860596,23.666666269302368 C18.444443225860596,20.65868674258354 20.88090811709526,18.222221851348877 23.888887643814087,18.222221851348877 C26.896869247423638,18.222221851348877 29.333332061767578,20.65868674258354 29.333332061767578,23.666666269302368 C29.333332061767578,26.674645796021196 26.896869247423638,29.11111068725586 23.888887643814087,29.11111068725586 C20.88090811709526,29.11111068725586 18.444443225860596,26.674645796021196 18.444443225860596,23.666666269302368 z" id="svg_8" class=""/></g></svg>