<svg xmlns="http://www.w3.org/2000/svg" xmlns:xlink="http://www.w3.org/1999/xlink" width="31.12359619140625" height="31.12359619140625"><rect id="backgroundrect" width="100%" height="100%" x="0" y="0" fill="none" stroke="none"/>
  
    
<g class="currentLayer" style=""><title>Layer 1</title><g fill="none" fill-rule="evenodd" id="svg_1" class="">
        <path d="m29.032911360263824,11.749164556622505 l-8.402,-4.534 l-4.525,2.6020000000000003 h-0.0010000000000000009 s-1.538,0.8560000000000004 -1.6340000000000003,2.236 c-0.1470000000000001,-0.09600000000000011 -0.4070000000000002,-0.3520000000000002 -0.4330000000000002,-0.555 L14.032911360263824,11.433164556622506 V8.248164556622505 c0,-0.22600000000000015 0.1470000000000001,-0.451 0.4380000000000002,-0.6220000000000004 L20.653911360263823,4.053164556622505 L29.032911360263824,8.565164556622506 " fill="#2480C3" id="svg_2"/>
        <g id="svg_3">
            
            <path d="M2.0549113602638247,7.779164556622505 C2.0829113602638247,7.573164556622505 2.2329113602638246,7.369164556622505 2.503911360263825,7.213164556622505 L13.252911360263825,0.9971645566225055 c0.6880000000000007,-0.39700000000000035 1.596,-0.5960000000000004 2.503,-0.5960000000000004 V3.6531645566225057 c-0.907,0 -1.815,0.19900000000000018 -2.503,0.5960000000000004 L4.218911360263824,9.474164556622505 l9.035,5.224 c1.3760000000000001,0.795 3.63,0.795 5.006,0 l10.75,-6.216 c0.3020000000000002,-0.17400000000000004 0.453,-0.404 0.453,-0.6350000000000005 v3.253 c0,0.23 -0.1500000000000001,0.46 -0.453,0.6350000000000005 l-10.75,6.215 c-1.377,0.796 -3.63,0.796 -5.006,0 L2.503911360263825,11.735164556622506 c-0.3020000000000002,-0.17500000000000004 -0.453,-0.404 -0.453,-0.6350000000000005 V7.847164556622506 l0.0040000000000000036,-0.06800000000000007 z" fill="#2480C3" mask="url(#b)" id="svg_5"/>
        </g>
        <path d="M29.032911360263824,17.398164556622504 c0,0.23700000000000004 -0.1500000000000001,0.4720000000000002 -0.4470000000000003,0.6520000000000006 l-10.588000000000001,6.39 c-1.355,0.8180000000000004 -3.574,0.8180000000000004 -4.93,0 L2.479911360263825,18.049164556622504 c-0.2990000000000002,-0.1800000000000001 -0.4470000000000003,-0.4160000000000002 -0.4470000000000003,-0.6520000000000006 V14.053164556622505 c0,0.23700000000000004 0.1480000000000001,0.4730000000000002 0.4470000000000003,0.6530000000000006 l10.588000000000001,6.39 c1.356,0.8180000000000004 3.575,0.8180000000000004 4.93,0 l10.588000000000001,-6.39 c0.2980000000000002,-0.1800000000000001 0.4470000000000003,-0.4160000000000002 0.4470000000000003,-0.6520000000000006 v3.3440000000000003 z" fill="#2480C3" id="svg_6"/>
        <path d="M29.032911360263824,22.398164556622504 c0,0.23600000000000004 -0.1500000000000001,0.4730000000000002 -0.4470000000000003,0.6530000000000006 l-10.588000000000001,6.388 c-1.355,0.8190000000000004 -3.574,0.8190000000000004 -4.93,0 L2.479911360263825,23.051164556622506 C2.180911360263825,22.871164556622507 2.0329113602638245,22.633164556622503 2.0329113602638245,22.397164556622506 V19.053164556622505 c0,0.23700000000000004 0.1480000000000001,0.4740000000000002 0.4470000000000003,0.6530000000000006 l10.588000000000001,6.389 c1.356,0.8180000000000004 3.575,0.8180000000000004 4.93,0 l10.588000000000001,-6.389 c0.2980000000000002,-0.1800000000000001 0.4470000000000003,-0.4160000000000002 0.4470000000000003,-0.6520000000000006 v3.3440000000000003 z" fill="#2480C3" id="svg_7"/>
    </g></g></svg>