<svg xmlns="http://www.w3.org/2000/svg" width="42" height="42"><rect id="backgroundrect" width="100%" height="100%" x="0" y="0" fill="none" stroke="none" style="" class=""/><g class="currentLayer" style=""><title>Layer 1</title><path fill="#cfd8dc" d="M20.72211217880249,8.96981829404831 c-1.633000373840332,-2.4489998817443848 -1.9860000610351562,-5.7220001220703125 -2.062999963760376,-7.066999912261963 c-4.1479997634887695,0.897000253200531 -8.269000053405762,2.50600004196167 -8.031000137329102,3.690999984741211 c0.030000004917383194,0.14900000393390656 0.21800002455711365,0.328000009059906 0.5300001502037048,0.5019998550415039 l-0.4880000054836273,0.8730000257492065 c-0.5960000157356262,-0.3340000808238983 -0.9310001730918884,-0.7189998626708984 -1.0219999551773071,-1.1790000200271606 c-0.2690000832080841,-1.340999960899353 1.25,-2.553999900817871 4.642000198364258,-3.7090001106262207 c2.315999984741211,-0.7889998555183411 4.6519999504089355,-1.2599999904632568 4.750999927520752,-1.2790000438690186 l0.5970001816749573,-0.12000001221895218 L19.638112545013428,1.2928178906440735 c0,0.04200001060962677 0.02600000612437725,4.288000106811523 1.9160000085830688,7.123000144958496 L20.72211217880249,8.96981829404831 z" id="svg_1" class=""/><path fill="#cfd8dc" d="M22.38911199569702,40.69281977415085 H22.138112545013428 c-8.192000389099121,0 -17.30900001525879,-2.572999954223633 -18.38599967956543,-6.879000186920166 c-0.6570001840591431,-2.630000114440918 1.4919999837875366,-5.5360002517700195 6.214000225067139,-8.401000022888184 l0.5199998617172241,0.8540001511573792 c-4.249000072479248,2.5789999961853027 -6.296000003814697,5.171999931335449 -5.763000011444092,7.304999828338623 c0.9350001811981201,3.73799991607666 9.574999809265137,6.067999839782715 17.152999877929688,6.119999885559082 c0.9010000228881836,-1.347000002861023 5.742000102996826,-9.260000228881836 2.9790000915527344,-19.87299919128418 l0.9670001864433289,-0.25200000405311584 c3.1489999294281006,12.092000007629395 -3.2179999351501465,20.836999893188477 -3.2820000648498535,20.923999786376953 L22.38911199569702,40.69281977415085 z" id="svg_2" class=""/><path fill="#cfd8dc" d="M7.569113731384277,36.99881953001022 c-0.5390001535415649,0 -0.8059999942779541,-0.059000011533498764 -0.8500000238418579,-0.07000002264976501 c-0.17599999904632568,-0.0430000014603138 -0.3140000104904175,-0.17800000309944153 -0.3620000183582306,-0.35200008749961853 c-0.04900000989437103,-0.17399999499320984 0.0010000000474974513,-0.3610000014305115 0.12900002300739288,-0.4880000054836273 c0.07200001180171967,-0.07200001180171967 7.197000026702881,-7.208000183105469 8.159000396728516,-12.977999687194824 l0.9860000014305115,0.164000004529953 c-0.8270000219345093,4.964000225067139 -5.715000152587891,10.623000144958496 -7.656000137329102,12.706999778747559 c1.939000129699707,-0.11100000143051147 6.835000038146973,-1.0190000534057617 16.233999252319336,-6.28000020980835 c-7.335000038146973,-0.8040000200271606 -8.494999885559082,-6.676000118255615 -8.506999969482422,-6.738999843597412 l0.9830001592636108,-0.1810000240802765 c0.04700000584125519,0.2460000067949295 1.2259999513626099,6.011000156402588 9.244000434875488,6.011000156402588 c0.003000000026077032,0 0.005000001285225153,0 0.00800000037997961,0 l0,0 c0.22699999809265137,0 0.424000084400177,0.15200002491474152 0.48200008273124695,0.3700000047683716 c0.06000000983476639,0.21800002455711365 -0.03600000590085983,0.4490000009536743 -0.23100000619888306,0.5630000233650208 C14.953114986419678,36.23481959104538 9.50511360168457,36.99782007932663 7.569113731384277,36.99881953001022 z" id="svg_3" class=""/><path fill="#cfd8dc" d="M12.16211462020874,39.3928205370903 c-0.2070000022649765,0 -0.39500001072883606,-0.12800000607967377 -0.46799999475479126,-0.32500001788139343 c-0.07900002598762512,-0.21100002527236938 -0.007000000216066837,-0.45000001788139343 0.1770000010728836,-0.5819998383522034 c0.03400000184774399,-0.025000005960464478 1.812999963760376,-1.3380000591278076 3.7059998512268066,-4.228000164031982 c-0.7279998660087585,-0.32200008630752563 -1.465000033378601,-0.6980002522468567 -2.196000099182129,-1.1369999647140503 c-0.8880000114440918,-0.5330001711845398 -1.559000015258789,-1.1050000190734863 -2.059999942779541,-1.690999984741211 c-2.569999933242798,0.6780001521110535 -4.941999912261963,0.9460001587867737 -7.025000095367432,0.7689999938011169 l0.08400001376867294,-0.9960001707077026 c1.875999927520752,0.15900002419948578 4.008999824523926,-0.06300000101327896 6.321000099182129,-0.6400001645088196 c-1.5729999542236328,-2.687999963760376 -0.12900002300739288,-5.355999946594238 -0.10900001227855682,-5.392000198364258 l0.8740000128746033,0.4870000183582306 c-0.06700000166893005,0.12200000137090683 -1.2649999856948853,2.369999885559082 0.24900002777576447,4.632999897003174 c2.2009999752044678,-0.6320000290870667 4.548999786376953,-1.567000150680542 6.979000091552734,-2.7820000648498535 c0.5590000152587891,-1.8350000381469727 0.9960001707077026,-3.921999931335449 1.225000023841858,-6.276000022888184 c0.01600000075995922,-0.16100004315376282 0.1080000028014183,-0.30400004982948303 0.24800002574920654,-0.385000079870224 s0.3109999895095825,-0.08800002187490463 0.4580000042915344,-0.021000005304813385 c0.03200000151991844,0.015000002458691597 3.2639999389648438,1.4909999370574951 5.604000091552734,2.4539999961853027 c0.17000000178813934,0.07000002264976501 0.2879999876022339,0.2280000001192093 0.3070000112056732,0.41099998354911804 c0.020000005140900612,0.18300004303455353 -0.06300000101327896,0.3610000014305115 -0.2160000056028366,0.4650000035762787 c-2.2890000343322754,1.559999942779541 -4.563000202178955,2.9130001068115234 -6.7779998779296875,4.041999816894531 c-0.701999843120575,2.2249999046325684 -1.5709998607635498,4.077000141143799 -2.4590001106262207,5.591000080108643 c3.7019999027252197,1.3830000162124634 6.914999961853027,1.4040000438690186 6.955999851226807,1.4040000438690186 c0.2280000001192093,0 0.4270000159740448,0.15400001406669617 0.4840000867843628,0.375 c0.05700001120567322,0.22100000083446503 -0.04200001060962677,0.45200008153915405 -0.24100002646446228,0.5630000233650208 c-4.539999961853027,2.5219998359680176 -11.767000198364258,3.2320001125335693 -12.071999549865723,3.260999917984009 C12.194114208221436,39.39182108640671 12.178114414215088,39.3928205370903 12.16211462020874,39.3928205370903 zM16.547112941741943,34.65981882810593 c-1.0399999618530273,1.6140000820159912 -2.062000036239624,2.7730000019073486 -2.8259999752044678,3.5299999713897705 c1.9980003833770752,-0.2940000891685486 5.500999927520752,-0.9380002617835999 8.407999992370605,-2.1389999389648438 C20.73711347579956,35.87982004880905 18.72211217880249,35.49981898069382 16.547112941741943,34.65981882810593 zM12.405114650726318,31.12381762266159 c0.3930000066757202,0.3920000195503235 0.8830000162124634,0.7749998569488525 1.4900000095367432,1.1399999856948853 c0.7360000014305115,0.44200000166893005 1.4830000400543213,0.817000150680542 2.2200000286102295,1.1349999904632568 c0.7540000081062317,-1.2640000581741333 1.500999927520752,-2.7809998989105225 2.1419999599456787,-4.567999839782715 C16.236112117767334,29.79281634092331 14.27411413192749,30.560817897319794 12.405114650726318,31.12381762266159 zM20.84011220932007,22.021818339824677 c-0.20499999821186066,1.7680000066757202 -0.5209998488426208,3.38100004196167 -0.9130001664161682,4.849999904632568 c1.6600000858306885,-0.8849999904632568 3.3540000915527344,-1.8960000276565552 5.061999797821045,-3.0260000228881836 C23.440112590789795,23.1898176074028 21.73711347579956,22.42681711912155 20.84011220932007,22.021818339824677 z" id="svg_4" class=""/><path fill="#cfd8dc" d="M15.562114238739014,8.292818248271942 c-0.11699999868869781,0 -0.2330000251531601,-0.04200001060962677 -0.32500001788139343,-0.12000001221895218 c-1.6100000143051147,-1.378000020980835 -3.505000114440918,-4.182000160217285 -3.5850000381469727,-4.301000118255615 c-0.12900002300739288,-0.1910000443458557 -0.10900001227855682,-0.44600000977516174 0.04600001126527786,-0.6159999966621399 c0.15400001406669617,-0.17100000381469727 0.40799999237060547,-0.21100002527236938 0.6080001592636108,-0.10200000554323196 c0.011000002734363079,0.003000000026077032 0.9380002617835999,0.385000079870224 7.2170000076293945,1.430999994277954 c0.1810000240802765,0.030000004917383194 0.33000001311302185,0.15600000321865082 0.39000001549720764,0.328000009059906 c0.061000000685453415,0.1720000058412552 0.022000005468726158,0.3640000820159912 -0.10000000149011612,0.5 c-1.7580000162124634,1.9530000686645508 -3.9790000915527344,2.812999963760376 -4.072999954223633,2.8480000495910645 C15.682115077972412,8.281817615032196 15.621114253997803,8.292818248271942 15.562114238739014,8.292818248271942 zM13.285114765167236,4.438817918300629 c0.6310001611709595,0.8490001559257507 1.5399999618530273,1.996000051498413 2.371999979019165,2.7690000534057617 c0.510999858379364,-0.2330000251531601 1.6570000648498535,-0.8180000185966492 2.74399995803833,-1.7980000972747803 C15.818114757537842,4.968818366527557 14.242114543914795,4.65481823682785 13.285114765167236,4.438817918300629 z" id="svg_5" class=""/><path fill="#b71c1c" d="M19.481112957000732,22.09281748533249 c-0.06800000369548798,0 -0.13700002431869507,-0.014000000432133675 -0.20100000500679016,-0.04200001060962677 c-0.1990000456571579,-0.08800002187490463 -0.3190000057220459,-0.2940000891685486 -0.29600009322166443,-0.5099999904632568 c0.29200008511543274,-2.749000072479248 -3.9260001182556152,-3.8519999980926514 -3.9690001010894775,-3.861999988555908 c-0.17399999499320984,-0.044000010937452316 -0.31200000643730164,-0.17900000512599945 -0.3590000867843628,-0.35200008749961853 s0.0020000000949949026,-0.3590000867843628 0.12900002300739288,-0.48600009083747864 c0.2070000022649765,-0.2070000022649765 5.138999938964844,-5.0980000495910645 11.32699966430664,-7.783999919891357 c0.1730000078678131,-0.07500002533197403 0.36900001764297485,-0.04700000584125519 0.5149998664855957,0.07000002264976501 c0.14499996602535248,0.11800000071525574 0.2120000272989273,0.3070000112056732 0.17399999499320984,0.4890000820159912 c-1.1859999895095825,5.74399995803833 -6.710000038146973,12.043999671936035 -6.944000244140625,12.309000015258789 C19.758113384246826,22.0338174700737 19.620112895965576,22.09281748533249 19.481112957000732,22.09281748533249 zM16.093112468719482,16.977817714214325 c1.184000015258789,0.4449999928474426 3.257999897003174,1.475000023841858 3.7829999923706055,3.3559999465942383 c1.4490000009536743,-1.808000087738037 4.541999816894531,-5.9730000495910645 5.697000026702881,-9.934000015258789 C21.186112880706787,12.509818255901337 17.492112636566162,15.691818416118622 16.093112468719482,16.977817714214325 z" id="svg_6" class=""/><path fill="#b71c1c" d="M10.717114448547363,26.052818477153778 l-0.4749999940395355,-0.8799999952316284 c1.8830000162124634,-1.0149999856948853 4.039999961853027,-2.882999897003174 5.807000160217285,-5.053999900817871 c-1.503999948501587,1.0299999713897705 -2.365000009536743,1.7350000143051147 -2.3919999599456787,1.7580000162124634 l-0.6390001773834229,-0.7699998617172241 c0.039000000804662704,-0.03200000151991844 1.7639999389648438,-1.4470000267028809 4.63100004196167,-3.2200000286102295 c0.7870000004768372,-1.2660000324249268 1.3919999599456787,-2.568000078201294 1.7030000686645508,-3.815999984741211 c0.053000010550022125,-0.2120000272989273 0.09900002181529999,-0.4169999957084656 0.13600000739097595,-0.6150000095367432 c-1.9249999523162842,-0.6870001554489136 -3.7009999752044678,-1.093999981880188 -4.921000003814697,-1.2690000534057617 c-0.1850000023841858,-0.02600000612437725 -0.33900001645088196,-0.15300002694129944 -0.4009999930858612,-0.328000009059906 c-0.062000010162591934,-0.17499996721744537 -0.021000005304813385,-0.3709999918937683 0.10400000214576721,-0.5070000290870667 c0.08500002324581146,-0.09200000017881393 2.115999937057495,-2.2680001258850098 4.654000282287598,-3.4630000591278076 c0.19700002670288086,-0.09300000220537186 0.43299999833106995,-0.04700000584125519 0.5809998512268066,0.11400000005960464 c0.06700000166893005,0.07300001382827759 1.440000057220459,1.6150000095367432 1.090999960899353,4.804999828338623 c1.1549999713897705,0.45000001788139343 2.3450000286102295,0.9970002770423889 3.490999937057495,1.6480000019073486 c2.759000062942505,-1.2400000095367432 5.892000198364258,-2.3559999465942383 9.229000091552734,-3.0299999713897705 c0.1720000058412552,-0.03400000184774399 0.3630000054836273,0.02800000086426735 0.48100000619888306,0.1680000275373459 c0.11699999868869781,0.14000000059604645 0.14900000393390656,0.3330000042915344 0.08300001174211502,0.503000020980835 c-1.2999999523162842,3.3320000171661377 -4.785999774932861,6.890999794006348 -4.934000015258789,7.040999889373779 c-0.10100000351667404,0.10200000554323196 -0.23900000751018524,0.15300002694129944 -0.3830000162124634,0.14800000190734863 c-0.14300000667572021,-0.00800000037997961 -0.2750000059604645,-0.07600001245737076 -0.36500000953674316,-0.18800002336502075 c-1.1200000047683716,-1.4079999923706055 -2.5840001106262207,-2.5739998817443848 -4.163000106811523,-3.5230000019073486 c-2.174999952316284,1.003999948501587 -4.10099983215332,2.078000068664551 -5.684000015258789,3.0490000247955322 C16.331114292144775,21.776817500591278 13.282113552093506,24.67181795835495 10.717114448547363,26.052818477153778 zM25.130113124847412,15.088817775249481 c1.2899999618530273,0.8320000171661377 2.490999937057495,1.809999942779541 3.4839999675750732,2.947999954223633 c0.828000009059906,-0.898000180721283 2.815000057220459,-3.1679999828338623 3.941999912261963,-5.421999931335449 C29.906114101409912,13.224817454814911 27.398112773895264,14.10781878232956 25.130113124847412,15.088817775249481 zM20.43711233139038,13.814817607402802 c-0.032999999821186066,0.16300004720687866 -0.07100002467632294,0.33000001311302185 -0.11299999803304672,0.5 c-0.21000002324581146,0.8390001654624939 -0.5440000295639038,1.7009999752044678 -0.972000002861023,2.560999870300293 c1.0959999561309814,-0.6259998679161072 2.309000015258789,-1.2720000743865967 3.618000030517578,-1.8980000019073486 C22.1321120262146,14.5338174700737 21.27711248397827,14.14781779050827 20.43711233139038,13.814817607402802 zM15.68611478805542,11.364817798137665 c1.1110000610351562,0.21800002455711365 2.4800000190734863,0.5740000009536743 3.940999984741211,1.0859999656677246 c0.15200002491474152,-1.8430001735687256 -0.3460000157356262,-2.9720001220703125 -0.647000253200531,-3.4720001220703125 C17.60411310195923,9.696817576885223 16.399112224578857,10.70681780576706 15.68611478805542,11.364817798137665 z" id="svg_7" class=""/><path fill="#b71c1c" d="M15.688113689422607,16.192817866802216 c0,4.380000114440918 -3.6500000953674316,7.860000133514404 -6.28000020980835,10.399999618530273 c-0.4399999976158142,0.4300000071525574 -1.9300000667572021,0.5 -1.9300000667572021,0.5 c0.3700000047683716,-0.3800000846385956 0.7900000214576721,-0.779999852180481 1.2400000095367432,-1.2100000381469727 c2.5,-2.4200000762939453 5.970000267028809,-5.730000019073486 5.970000267028809,-9.690000534057617 c0,-4.690000057220459 -1.8900001049041748,-6.539999961853027 -3.380000114440918,-8.020000457763672 c-0.6600000262260437,-0.6700000166893005 -1.2200000286102295,-1.309999942779541 -1.559999942779541,-2.0899999141693115 l0.3100000023841858,-0.1300000250339508 c0.3400000035762787,0.15000000596046448 0.7300000190734863,0.3200000822544098 1.0299999713897705,0.45000001788139343 c0.24000002443790436,0.3500000834465027 0.5600000023841858,0.6900001764297485 0.9300001859664917,1.059999942779541 C13.54811429977417,8.992818057537079 15.688113689422607,11.092817485332489 15.688113689422607,16.192817866802216 z" id="svg_8" class=""/><path fill="#b71c1c" d="M40.573115825653076,17.486818492412567 c0,0 -0.6050000190734863,0.0860000029206276 -0.7749998569488525,0.10600000619888306 c-8.760000228881836,0.9700000286102295 -17.799999237060547,3.490000009536743 -22.969999313354492,5.559999942779541 c-1.8700000047683716,0.75 -3.809999942779541,1.6600000858306885 -5.579999923706055,2.680000066757202 c-0.010000002570450306,0.010000002570450306 -0.020000005140900612,0.010000002570450306 -0.040000010281801224,0.020000005140900612 C10.168113708496094,26.45281809568405 7.638113975524902,27.692817866802216 5.588113784790039,28.782818019390106 c3,-3.190000057220459 8.619999885559082,-5.650000095367432 10.859999656677246,-6.550000190734863 c5.070000171661377,-2.0299999713897705 13.779999732971191,-4.480000019073486 22.350000381469727,-5.53000020980835 c-1.0099999904632568,-1.1800000667572021 -3.4800000190734863,-3.680000066757202 -8.34000015258789,-5.539999961853027 c-2.8400001525878906,-1.100000023841858 -7.159999847412109,-1.7200000286102295 -10.970000267028809,-2.2699999809265137 c-6.059999942779541,-0.8700000047683716 -9.510000228881836,-1.4500000476837158 -9.84000015258789,-3.0999999046325684 c-0.07000002264976501,-0.33000001311302185 -0.020000005140900612,-0.6600000262260437 0.1300000250339508,-0.9800000190734863 c0.33000001311302185,0.5400000214576721 0.800000011920929,0.9200000166893005 1.1100000143051147,1.1399999856948853 c0.15000000596046448,0.10000000149011612 0.260000079870224,0.1600000262260437 0.30000001192092896,0.18000000715255737 l0.010000002570450306,0.010000002570450306 c1.4200000762939453,0.75 5.25,1.2999999523162842 8.4399995803833,1.7599999904632568 c3.8600001335144043,0.5600000023841858 8.229999542236328,1.190000057220459 11.180000305175781,2.319999933242798 c6.869999885559082,2.6500000953674316 9.239999771118164,6.440000057220459 9.34000015258789,6.599999904632568 C40.24811506271362,16.972818553447723 40.573115825653076,17.486818492412567 40.573115825653076,17.486818492412567 z" id="svg_9" class=""/><path fill="#1aeb1a" fill-opacity="1" stroke="#222222" stroke-opacity="1" stroke-width="2" stroke-dasharray="none" stroke-linejoin="round" stroke-linecap="butt" stroke-dashoffset="" fill-rule="nonzero" opacity="1" marker-start="" marker-mid="" marker-end="" d="M26.888888463377953,33.77777862548828 C26.888888463377953,29.848987579345703 30.071210011839867,26.666667938232422 33.99999915063381,26.666667938232422 C37.92879019677639,26.666667938232422 41.11110983788967,29.848987579345703 41.11110983788967,33.77777862548828 C41.11110983788967,37.70656967163086 37.92879019677639,40.88888931274414 33.99999915063381,40.88888931274414 C30.071210011839867,40.88888931274414 26.888888463377953,37.70656967163086 26.888888463377953,33.77777862548828 z" id="svg_14" class="" transform=""/></g></svg>